<svg xmlns="http://www.w3.org/2000/svg" width="50" height="50" viewBox="0 0 242 246">
  <defs>
    <style>
      .cls-1 {
        fill: #0b5093;
        fill-rule: evenodd;
      }
    </style>
  </defs>
  <path class="cls-1" d="M121.514,8.015A109.473,109.473,0,1,0,231,117.51,109.5,109.5,0,0,0,121.514,8.015Zm0,202.294a92.822,92.822,0,1,1,92.818-92.8A92.912,92.912,0,0,1,121.514,210.309ZM176.833,90.447a15.809,15.809,0,0,0-15.782-15.8H82.02A15.88,15.88,0,0,0,66.137,90.5v54A15.88,15.88,0,0,0,82.02,160.355h79.016A15.856,15.856,0,0,0,176.868,144.5V90.533Zm-55.3,26.617-4.8-4.29,0.405,0.389-1.015-.933L88.2,87.234a4.71,4.71,0,0,0-.965-0.592H155.8a5.278,5.278,0,0,0-1.091.694Zm9.192,7.852,23.988,22.766a5.513,5.513,0,0,0,1.091.665H87.352a5.4,5.4,0,0,0,1.1-.665l24.138-22.564,5,4.49a6.028,6.028,0,0,0,4,1.516,5.847,5.847,0,0,0,4.049-1.6ZM78.129,144.5V90.533a3.682,3.682,0,0,1,2-3.1c-0.153.152-.345,0.208-0.478,0.366a5.956,5.956,0,0,0,.6,8.4l23.342,20.87L80.261,138.9a6,6,0,0,0-.218,8.532c0.131,0.132.321,0.176,0.441,0.289A3.652,3.652,0,0,1,78.129,144.5Zm86.768,0.409A3.815,3.815,0,0,1,163,147.6a0.469,0.469,0,0,0,.158-0.129,6.042,6.042,0,0,0-.137-8.447l-23.291-22.149,23.052-20.678a6.05,6.05,0,0,0,.489-8.48,4.715,4.715,0,0,0-.436-0.321,3.781,3.781,0,0,1,2.063,3.141v54.374Z"/>
</svg>
