<svg xmlns="http://www.w3.org/2000/svg" width="50" height="50" viewBox="0 0 242 246">
  <defs>
    <style>
      .cls-1 {
        fill: #0b5093;
        fill-rule: evenodd;
      }

      .cls-2 {
        font-size: 33.333px;
        fill: #095192;
        text-anchor: end;
        font-family: Raleway;
      }
    </style>
  </defs>
  <path class="cls-1" d="M95.8,177.128H69.727V98.719H95.8v78.409Zm-13.037-89.1H82.6c-8.764,0-14.413-6.009-14.413-13.542,0-7.7,5.816-13.544,14.758-13.544s14.417,5.847,14.562,13.545C97.506,82.015,91.872,88.024,82.764,88.024Zm107.06,89.1h-26.1V135.187c0-10.545-3.748-17.75-13.2-17.75-7.206,0-11.482,4.864-13.365,9.563a17.725,17.725,0,0,0-.869,6.34v43.788H110.217s0.361-71.042,0-78.409h26.076v11.12c3.491-5.321,9.649-12.954,23.523-12.954,17.164,0,30.008,11.2,30.008,35.274v44.969ZM129.006,7.042a111.983,111.983,0,1,0,111.971,112A112.028,112.028,0,0,0,129.006,7.042Zm0,206.917a94.943,94.943,0,1,1,94.9-94.917A95.041,95.041,0,0,1,129.006,213.959Z"/>
  <text id="_1" data-name="1" class="cls-2" x="381" y="100"><tspan x="381">1</tspan></text>
</svg>
