<svg xmlns="http://www.w3.org/2000/svg" width="242" height="246" viewBox="0 0 242 246">
  <defs>
    <style>
      .cls-1 {
        fill: #0b5093;
        fill-rule: evenodd;
      }

      .cls-2 {
        font-size: 33.333px;
        fill: #095192;
        text-anchor: end;
        font-family: Raleway;
      }
    </style>
  </defs>
  <path class="cls-1" d="M120.972-.067C54.152-.067-0.019,55.033-0.019,122.96c0,67.986,54.171,123.048,120.991,123.048s121-55.062,121-123.048C241.975,55.033,187.807-.067,120.972-0.067Zm0,18.73c56.661,0.074,102.459,46.719,102.584,104.3-0.125,57.62-45.923,104.229-102.584,104.318-56.628-.089-102.461-46.7-102.566-104.318C18.511,65.382,64.344,18.737,120.972,18.663ZM38.2,147.868a0.751,0.751,0,0,1-.689.664,0.717,0.717,0,0,1-.688-0.682l-1.238-9.486,1.238-9.626a0.7,0.7,0,0,1,.688-0.682,0.735,0.735,0,0,1,.689.682l1.473,9.646Zm6.339,5.754a0.754,0.754,0,0,1-.726.706,0.762,0.762,0,0,1-.706-0.706l-1.665-15.258,1.665-15.6a0.773,0.773,0,0,1,.706-0.7,0.764,0.764,0,0,1,.726.7l1.909,15.6Zm6.848,2.594a0.889,0.889,0,0,1-.852.848,0.908,0.908,0,0,1-.865-0.848L48.1,138.384l1.574-18.5a0.913,0.913,0,0,1,.865-0.866,0.9,0.9,0,0,1,.852.866l1.8,18.5Zm6.92,0.556a1.01,1.01,0,1,1-2.019,0l-1.5-18.388,1.5-19.022a1.01,1.01,0,0,1,2.019,0l1.7,19.022Zm6.953,0.144a1.149,1.149,0,0,1-1.133,1.152,1.163,1.163,0,0,1-1.147-1.152l-1.435-18.532,1.435-17.637a1.162,1.162,0,0,1,1.147-1.152,1.144,1.144,0,0,1,1.133,1.135l1.612,17.654Zm7.025,0.021v-0.021a1.291,1.291,0,1,1-2.583.021l-1.325-18.553L69.7,109.7a1.291,1.291,0,1,1,2.583-.014l1.505,28.7Zm6.973-.021h0a1.441,1.441,0,1,1-2.882,0l-1.241-18.425,1.241-35.268a1.441,1.441,0,1,1,2.882,0l1.418,35.268Zm7.236-.268V156.63a1.582,1.582,0,1,1-3.163.018L82.164,138.4,83.332,100.2a1.582,1.582,0,1,1,3.163,0L87.809,138.4Zm7.188-.125a1.727,1.727,0,1,1-3.454,0L89.154,138.4l1.075-39.481a1.728,1.728,0,1,1,3.454,0L94.889,138.4Zm7.237-.162v-0.018a1.917,1.917,0,0,1-1.891,1.906,1.9,1.9,0,0,1-1.859-1.888L96.179,138.4l0.973-38.476a1.884,1.884,0,1,1,3.768,0l1.116,38.476Zm7.293-.109v-0.018a2.027,2.027,0,1,1-4.053.018l-0.887-17.85,0.887-37.07a2.061,2.061,0,0,1,2.036-2.053,2.033,2.033,0,0,1,2.017,2.053l1.025,37.088Zm7.448-1.888-0.087,1.764a2.421,2.421,0,0,1-.657,1.544,2.139,2.139,0,0,1-3.183-.162,2.254,2.254,0,0,1-.494-1.294v-0.088s-0.834-17.708-.834-17.744l0.834-43.675V94.277a2.242,2.242,0,0,1,.99-1.835A2.207,2.207,0,0,1,113.4,92.1a2.156,2.156,0,0,1,1.2.361,2.264,2.264,0,0,1,.973,1.817l0.918,44.143Zm7.223,1.524v-0.012a2.31,2.31,0,1,1-4.62,0l-0.479-8.623-0.477-8.833,0.956-47.886V90.3a2.38,2.38,0,0,1,.866-1.814,2.175,2.175,0,0,1,1.453-.543,2.3,2.3,0,0,1,1.185.34,2.433,2.433,0,0,1,1.133,2l1.026,48.137Zm62.482,2.361H127.128a2.477,2.477,0,0,1-2.263-2.446V88c0.018-1.243.439-1.888,2.016-2.5a37.148,37.148,0,0,1,13.449-2.559c19.36,0,35.235,15.1,36.917,34.355a20.752,20.752,0,0,1,8.119-1.657,21.308,21.308,0,0,1,0,42.612h0Zm0,0"/>
  <text id="_1" data-name="1" class="cls-2" x="381" y="100"><tspan x="381">1</tspan></text>
</svg>
