<svg id="Layer_1" data-name="Layer 1" width="1029" height="170" xmlns="http://www.w3.org/2000/svg" viewBox="0 0 1028.83 170">
  <defs>
    <style>.cls-1{fill:#ed601a;}.cls-2{fill:#eeeeff;}</style>
  </defs>
  <title>Vertafore_Color_Light_1</title>
  <path class="cls-1"
        d="M133.15,106.75l-9.35-8.5-14.42,10.35L130.74,128a11.82,11.82,0,0,0,19.77-8.75V79.08L133.15,91.54Z"/>
  <path class="cls-1"
        d="M150.51,31.21l6.28,10.12,14.13-10.15C164.2,20.34,158.55,11.25,155,5.6a11.83,11.83,0,0,0-21.88,6.25V58.3l17.36-12.46Z"/>
  <path class="cls-1"
        d="M231.71,1.39a11.78,11.78,0,0,0-12.31.92L203.77,13.54h0l-7,5.06L31.31,137.36h0l-13.95,10V25L89,90l14.42-10.35L19.8,3.75A11.84,11.84,0,0,0,0,12.51V158.17a11.81,11.81,0,0,0,18.72,9.6l22.72-16.31h0L206.84,32.7h0l13.95-10V112c-10.06-16.47-23.34-38-35.61-57.84L171,64.34c17,27.49,35.81,58,45.14,73.58a11.82,11.82,0,0,0,22-6.08V11.92A11.79,11.79,0,0,0,231.71,1.39Z"/>
  <path class="cls-2"
        d="M501.51,98.78a65.69,65.69,0,0,1-.43,7.68H441.15c2.44,12.21,11,17.53,21.72,17.53a34.18,34.18,0,0,0,21.37-8.11l13.34,14.65c-9.59,8.81-21.81,12.82-36,12.82-25.91,0-43.87-17.62-43.87-44.22s17.44-44.75,42.74-44.75C484.76,54.39,501.42,72.44,501.51,98.78Zm-60.27-7.85h37.42C476.57,80.12,470,74,460.25,74,449.52,74,443.24,80.47,441.24,90.93Z"/>
  <path class="cls-2"
        d="M569.78,56.22l-3.4,22.59a36.94,36.94,0,0,0-13.78-2.7c-10.56,0-17.79,6.46-17.79,19v46.05H512V56.65h22.06V65.9c5.32-7.94,13.43-11.51,23.81-11.51A34.58,34.58,0,0,1,569.78,56.22Z"/>
  <path class="cls-2"
        d="M631.82,76.89H601.21v30.88c0,10.55,5.58,14.39,12.65,14.39,5.41,0,11.25-2.7,15.88-5.49l8.37,17.79c-7.41,5.06-16,8.9-28,8.9-20.94,0-31.66-11.86-31.66-33.76V31.53h22.76V56.65h30.62Z"/>
  <path class="cls-2"
        d="M727.92,141.17H705.68v-9.33c-5.49,6.8-13.69,11.51-25.29,11.51-23.29,0-40.91-19.1-40.91-44.48s17.62-44.48,40.91-44.48c11.6,0,19.71,4.71,25.29,11.6V56.65h22.24Zm-65.16-42.3c0,12.91,8.46,23.29,21.81,23.29,13,0,21.81-9.94,21.81-23.29s-8.81-23.29-21.81-23.29C671.23,75.58,662.77,86,662.77,98.87Z"/>
  <path class="cls-2"
        d="M788.93,76.89H762.68v64.28H739.92v-95c0-19.8,10.55-32.8,30.27-32.8,11.51,0,19.54,3.31,26,7.59L787.1,38.69a30.76,30.76,0,0,0-14.48-4.1c-6.54,0-9.94,4-9.94,11.86v10.2h26.25Z"/>
  <path class="cls-2"
        d="M880,98.87c0,25.47-19.45,44.48-45.79,44.48s-45.62-19-45.62-44.48,19.36-44.48,45.62-44.48S880,73.4,880,98.87Zm-68.21,0c0,13.69,9.6,23.29,22.42,23.29s22.5-9.6,22.5-23.29S847,75.58,834.19,75.58,811.77,85.17,811.77,98.87Z"/>
  <path class="cls-2"
        d="M946.69,56.22l-3.4,22.59a37,37,0,0,0-13.78-2.7c-10.55,0-17.79,6.46-17.79,19v46.05H888.94V56.65H911V65.9c5.32-7.94,13.43-11.51,23.81-11.51A34.62,34.62,0,0,1,946.69,56.22Z"/>
  <path class="cls-2"
        d="M1028.83,98.78a65.69,65.69,0,0,1-.43,7.68H968.47c2.44,12.21,11,17.53,21.72,17.53a34.18,34.18,0,0,0,21.37-8.11l13.34,14.65c-9.59,8.81-21.81,12.82-36,12.82C963,143.35,945,125.73,945,99.13s17.44-44.75,42.74-44.75C1012.08,54.39,1028.75,72.44,1028.83,98.78Zm-60.27-7.85H1006C1003.89,80.12,997.34,74,987.58,74,976.85,74,970.56,80.47,968.56,90.93Z"/>
  <path class="cls-2" d="M386.59,141.17H357L311.08,19H337l35,97.5L407.18,19H432.5Z"/>
</svg>